<svg width="237" height="69" viewBox="0 0 237 69" fill="none" xmlns="http://www.w3.org/2000/svg">
<g filter="url(#filter0_d_1685_991)">
<path d="M66.8496 25.1689V50H62.5811V25.1689H66.8496ZM62.2598 18.5825C62.2598 17.894 62.4663 17.3127 62.8794 16.8384C63.3078 16.3641 63.9351 16.127 64.7613 16.127C65.5721 16.127 66.1918 16.3641 66.6201 16.8384C67.0638 17.3127 67.2857 17.894 67.2857 18.5825C67.2857 19.2404 67.0638 19.8065 66.6201 20.2808C66.1918 20.7397 65.5721 20.9692 64.7613 20.9692C63.9351 20.9692 63.3078 20.7397 62.8794 20.2808C62.4663 19.8065 62.2598 19.2404 62.2598 18.5825ZM77.911 30.4702V50H73.666V25.1689H77.682L77.911 30.4702ZM76.901 36.6436L75.134 36.5747C75.15 34.8765 75.402 33.3083 75.892 31.8701C76.381 30.4167 77.07 29.1545 77.957 28.0835C78.844 27.0125 79.9 26.1864 81.124 25.605C82.363 25.0083 83.733 24.71 85.232 24.71C86.456 24.71 87.557 24.8783 88.537 25.2148C89.516 25.5361 90.35 26.0563 91.038 26.7754C91.742 27.4945 92.277 28.4277 92.645 29.5752C93.012 30.7074 93.195 32.092 93.195 33.729V50H88.927V33.6831C88.927 32.3826 88.736 31.3423 88.353 30.562C87.971 29.7664 87.412 29.1927 86.678 28.8408C85.943 28.4736 85.041 28.29 83.97 28.29C82.914 28.29 81.95 28.5119 81.078 28.9556C80.221 29.3993 79.479 30.0112 78.852 30.7915C78.24 31.5718 77.758 32.4668 77.406 33.4766C77.07 34.471 76.901 35.5267 76.901 36.6436ZM126.701 14.75H130.97V45.1807L130.603 50H126.701V14.75ZM147.746 37.3779V37.8599C147.746 39.6652 147.531 41.3405 147.103 42.8857C146.675 44.4157 146.047 45.7467 145.221 46.8789C144.395 48.0111 143.385 48.8908 142.192 49.5181C140.999 50.1453 139.629 50.459 138.084 50.459C136.508 50.459 135.124 50.1912 133.93 49.6558C132.752 49.105 131.758 48.3171 130.947 47.292C130.136 46.2669 129.486 45.0277 128.996 43.5742C128.522 42.1208 128.193 40.4837 128.009 38.6631V36.5518C128.193 34.7158 128.522 33.0711 128.996 31.6177C129.486 30.1642 130.136 28.925 130.947 27.8999C131.758 26.8595 132.752 26.0716 133.93 25.5361C135.108 24.9854 136.478 24.71 138.038 24.71C139.599 24.71 140.983 25.016 142.192 25.6279C143.401 26.2246 144.41 27.0814 145.221 28.1982C146.047 29.3151 146.675 30.6538 147.103 32.2144C147.531 33.7596 147.746 35.4808 147.746 37.3779ZM143.477 37.8599V37.3779C143.477 36.1387 143.362 34.9759 143.133 33.8896C142.903 32.7881 142.536 31.8242 142.031 30.998C141.526 30.1566 140.861 29.4987 140.035 29.0244C139.209 28.5348 138.191 28.29 136.982 28.29C135.911 28.29 134.978 28.4736 134.183 28.8408C133.402 29.208 132.737 29.7052 132.186 30.3325C131.635 30.9445 131.184 31.6483 130.832 32.4438C130.495 33.2241 130.243 34.035 130.075 34.8765V40.4072C130.32 41.4782 130.717 42.5109 131.268 43.5054C131.834 44.4845 132.584 45.2878 133.517 45.915C134.466 46.5423 135.636 46.856 137.028 46.856C138.176 46.856 139.155 46.6265 139.966 46.1675C140.792 45.6932 141.458 45.043 141.962 44.2168C142.483 43.3906 142.865 42.4344 143.11 41.3481C143.355 40.2619 143.477 39.0991 143.477 37.8599ZM167.757 45.7544V32.9717C167.757 31.9925 167.558 31.1434 167.161 30.4243C166.778 29.6899 166.197 29.1239 165.417 28.7261C164.636 28.3283 163.672 28.1294 162.525 28.1294C161.454 28.1294 160.513 28.313 159.702 28.6802C158.907 29.0474 158.279 29.5293 157.82 30.126C157.377 30.7227 157.155 31.3652 157.155 32.0537H152.909C152.909 31.1663 153.139 30.2866 153.598 29.4146C154.057 28.5425 154.715 27.7546 155.571 27.0508C156.443 26.3317 157.484 25.7656 158.692 25.3525C159.916 24.9242 161.278 24.71 162.777 24.71C164.583 24.71 166.174 25.016 167.551 25.6279C168.943 26.2399 170.029 27.1655 170.81 28.4048C171.605 29.6287 172.003 31.1663 172.003 33.0176V44.584C172.003 45.4102 172.072 46.2899 172.209 47.2231C172.362 48.1564 172.584 48.9596 172.875 49.6328V50H168.446C168.232 49.5104 168.063 48.8602 167.941 48.0493C167.819 47.2231 167.757 46.4582 167.757 45.7544ZM168.492 34.9453L168.538 37.9287H164.246C163.037 37.9287 161.959 38.0282 161.01 38.2271C160.062 38.4106 159.266 38.6937 158.624 39.0762C157.981 39.4587 157.491 39.9406 157.155 40.522C156.818 41.0881 156.65 41.7536 156.65 42.5186C156.65 43.2988 156.826 44.0103 157.178 44.6528C157.53 45.2954 158.057 45.8079 158.761 46.1904C159.48 46.5576 160.36 46.7412 161.4 46.7412C162.701 46.7412 163.848 46.4658 164.843 45.915C165.837 45.3643 166.625 44.6911 167.207 43.8955C167.803 43.0999 168.125 42.3273 168.17 41.5776L169.983 43.6201C169.876 44.2627 169.586 44.9741 169.111 45.7544C168.637 46.5347 168.002 47.2843 167.207 48.0034C166.426 48.7072 165.493 49.2962 164.407 49.7705C163.336 50.2295 162.127 50.459 160.781 50.459C159.098 50.459 157.621 50.13 156.352 49.4722C155.097 48.8143 154.118 47.9346 153.414 46.833C152.726 45.7161 152.381 44.4692 152.381 43.0923C152.381 41.7612 152.641 40.5908 153.162 39.5811C153.682 38.556 154.432 37.7069 155.411 37.0337C156.39 36.3452 157.568 35.825 158.945 35.4731C160.322 35.1213 161.859 34.9453 163.558 34.9453H168.492ZM189.077 25.1689V28.4277H175.652V25.1689H189.077ZM180.196 19.1333H184.441V43.8496C184.441 44.6911 184.571 45.326 184.832 45.7544C185.092 46.1828 185.428 46.4658 185.841 46.6035C186.254 46.7412 186.698 46.8101 187.172 46.8101C187.524 46.8101 187.891 46.7795 188.274 46.7183C188.672 46.6418 188.97 46.5806 189.169 46.5347L189.192 50C188.855 50.1071 188.412 50.2065 187.861 50.2983C187.325 50.4054 186.675 50.459 185.91 50.459C184.87 50.459 183.914 50.2524 183.042 49.8394C182.169 49.4263 181.473 48.7378 180.953 47.7739C180.448 46.7948 180.196 45.479 180.196 43.8267V19.1333ZM192.474 37.8599V37.332C192.474 35.542 192.734 33.882 193.254 32.3521C193.774 30.8068 194.524 29.4681 195.503 28.3359C196.482 27.1885 197.668 26.3011 199.06 25.6738C200.452 25.0312 202.013 24.71 203.742 24.71C205.486 24.71 207.054 25.0312 208.446 25.6738C209.854 26.3011 211.047 27.1885 212.026 28.3359C213.021 29.4681 213.778 30.8068 214.298 32.3521C214.819 33.882 215.079 35.542 215.079 37.332V37.8599C215.079 39.6499 214.819 41.3099 214.298 42.8398C213.778 44.3698 213.021 45.7085 212.026 46.856C211.047 47.9881 209.862 48.8755 208.469 49.5181C207.092 50.1453 205.532 50.459 203.788 50.459C202.043 50.459 200.475 50.1453 199.083 49.5181C197.691 48.8755 196.497 47.9881 195.503 46.856C194.524 45.7085 193.774 44.3698 193.254 42.8398C192.734 41.3099 192.474 39.6499 192.474 37.8599ZM196.719 37.332V37.8599C196.719 39.0991 196.865 40.2695 197.155 41.3711C197.446 42.4574 197.882 43.4212 198.463 44.2627C199.06 45.1042 199.802 45.7697 200.689 46.2593C201.577 46.7336 202.61 46.9707 203.788 46.9707C204.95 46.9707 205.968 46.7336 206.84 46.2593C207.727 45.7697 208.462 45.1042 209.043 44.2627C209.624 43.4212 210.06 42.4574 210.351 41.3711C210.657 40.2695 210.81 39.0991 210.81 37.8599V37.332C210.81 36.1081 210.657 34.953 210.351 33.8667C210.06 32.7651 209.617 31.7936 209.02 30.9521C208.439 30.0954 207.704 29.4222 206.817 28.9326C205.945 28.443 204.92 28.1982 203.742 28.1982C202.579 28.1982 201.554 28.443 200.667 28.9326C199.794 29.4222 199.06 30.0954 198.463 30.9521C197.882 31.7936 197.446 32.7651 197.155 33.8667C196.865 34.953 196.719 36.1081 196.719 37.332ZM224.648 29.0703V50H220.403V25.1689H224.534L224.648 29.0703ZM232.405 25.0312L232.382 28.9785C232.03 28.902 231.694 28.8561 231.373 28.8408C231.067 28.8102 230.715 28.7949 230.317 28.7949C229.338 28.7949 228.473 28.9479 227.724 29.2539C226.974 29.5599 226.339 29.9883 225.819 30.5391C225.299 31.0898 224.886 31.7477 224.58 32.5127C224.289 33.2624 224.098 34.0885 224.006 34.9912L222.813 35.6797C222.813 34.1803 222.958 32.7728 223.249 31.457C223.555 30.1413 224.021 28.9785 224.648 27.9688C225.276 26.9437 226.071 26.1481 227.035 25.582C228.014 25.0007 229.177 24.71 230.523 24.71C230.829 24.71 231.181 24.7482 231.579 24.8247C231.977 24.8859 232.252 24.9548 232.405 25.0312Z" fill="white"/>
<path d="M109.943 18.6504C113.453 18.6504 116.038 19.5277 117.698 21.2824C119.359 23.0371 120.189 25.5281 120.189 28.7554V40.4584C120.189 44.4691 118.701 47.2734 115.724 48.8714L121.129 50.2814L121.223 53.9944H120.33L111.118 50.5164C110.899 50.5477 110.523 50.5634 109.99 50.5634C103.128 50.5634 99.6973 47.1951 99.6973 40.4584V28.7554C99.6973 25.5281 100.528 23.0371 102.188 21.2824C103.849 19.5277 106.434 18.6504 109.943 18.6504ZM109.943 22.1754C107.875 22.1754 106.309 22.6924 105.243 23.7264C104.209 24.7604 103.692 26.2801 103.692 28.2854V40.8814C103.692 42.8867 104.225 44.4221 105.29 45.4874C106.356 46.5214 107.922 47.0384 109.99 47.0384C114.126 47.0384 116.194 44.9547 116.194 40.7874V28.3324C116.194 26.3271 115.662 24.8074 114.596 23.7734C113.562 22.7081 112.011 22.1754 109.943 22.1754Z" fill="url(#paint0_linear_1685_991)"/>
</g>
<path d="M11.0834 40.3444L3.76303 40.5634C2.72883 40.6182 1.87243 40.2696 1.19403 39.5176C0.513928 38.7663 0.294728 37.9623 0.536528 37.1057L3.58303 26.3114C3.80873 25.5118 4.23993 24.8219 4.87673 24.2417C5.51343 23.6614 6.29813 23.2662 7.23063 23.0561L10.8903 22.2715C10.2903 25.6869 9.99123 28.6826 9.99333 31.2589C9.99263 33.8343 10.356 36.8628 11.0834 40.3444ZM32.851 1.50611C33.1834 1.35991 33.8122 1.11721 33.8122 1.11721C33.8122 1.11721 34.6842 0.906512 35.2594 0.927212C36.0311 0.954912 36.4683 1.12611 37.1605 1.43081C38.5062 2.02321 39.5872 3.53741 39.7906 3.84811C42.6951 7.48511 43.3315 8.90471 44.0675 13.5831C44.8019 18.2622 44.003 23.888 42.2065 29.1462C41.0636 32.4914 39.4306 34.6893 38.1792 36.8645C36.9288 39.0412 35.2599 41.3141 33.1723 43.683C32.7594 44.1148 32.2729 44.4538 31.7129 44.7002C31.1513 44.9473 30.5356 44.968 29.866 44.7623L17.0394 41.3629C16.3698 41.1572 16.0999 40.8302 15.7562 40.3051C15.4135 39.7816 15.2147 38.7271 15.0919 38.1309C14.5933 34.9988 14.3773 32.1545 14.4439 29.5982C14.5098 27.0441 14.978 24.225 15.8484 21.1409C17.1218 16.629 19.2824 12.6142 22.3302 9.09661C25.379 5.58041 28.886 3.05031 32.851 1.50611ZM35.3915 47.809C37.8115 45.2938 39.7013 42.9498 41.0612 40.7769C42.4201 38.6025 43.7344 35.9104 45.0041 32.7007L47.6102 35.4559C48.2848 36.1596 48.7456 36.9453 48.9926 37.8131C49.2386 38.6793 49.2488 39.5122 49.0231 40.3118L45.9766 51.106C45.7348 51.9627 45.1269 52.5052 44.1528 52.7337C43.1787 52.9621 42.2713 52.761 41.4305 52.1304L35.3915 47.809Z" fill="url(#paint1_linear_1685_991)"/>
<path d="M10.321 53.6947C10.6906 51.1862 11.9987 49.5519 13.8052 48.3104C16.0667 46.7563 19.9653 46.9773 22.309 47.697C24.6528 48.4168 26.6566 49.6405 27.9278 51.5824C29.1989 53.5243 29.511 54.94 28.7259 57.238C28.3229 58.6658 26.6846 60.9021 24.7128 62.6699C22.7394 64.4384 19.2932 66.3155 15.3703 68.7415C13.3334 64.4853 11.8472 62.7959 11.1205 60.2143C10.3937 57.6328 10.1221 55.0444 10.321 53.6947Z" fill="url(#paint2_linear_1685_991)"/>
<defs>
<filter id="filter0_d_1685_991" x="58.2598" y="14.75" width="178.145" height="47.2441" filterUnits="userSpaceOnUse" color-interpolation-filters="sRGB">
<feFlood flood-opacity="0" result="BackgroundImageFix"/>
<feColorMatrix in="SourceAlpha" type="matrix" values="0 0 0 0 0 0 0 0 0 0 0 0 0 0 0 0 0 0 127 0" result="hardAlpha"/>
<feOffset dy="4"/>
<feGaussianBlur stdDeviation="2"/>
<feComposite in2="hardAlpha" operator="out"/>
<feColorMatrix type="matrix" values="0 0 0 0 0 0 0 0 0 0 0 0 0 0 0 0 0 0 0.25 0"/>
<feBlend mode="normal" in2="BackgroundImageFix" result="effect1_dropShadow_1685_991"/>
<feBlend mode="normal" in="SourceGraphic" in2="effect1_dropShadow_1685_991" result="shape"/>
</filter>
<linearGradient id="paint0_linear_1685_991" x1="146.5" y1="5.99939" x2="146.5" y2="60.9994" gradientUnits="userSpaceOnUse">
<stop stop-color="#6F58DB"/>
<stop offset="1" stop-color="#E56E84"/>
</linearGradient>
<linearGradient id="paint1_linear_1685_991" x1="16.2869" y1="9.01631" x2="38.144" y2="58.7021" gradientUnits="userSpaceOnUse">
<stop stop-color="#6956DE"/>
<stop offset="1" stop-color="#ED6F7E"/>
</linearGradient>
<linearGradient id="paint2_linear_1685_991" x1="15.1661" y1="9.77996" x2="37.0231" y2="59.4658" gradientUnits="userSpaceOnUse">
<stop stop-color="#6956DE"/>
<stop offset="1" stop-color="#ED6F7E"/>
</linearGradient>
</defs>
</svg>
